<?xml version="1.0" encoding="iso-8859-1"?><!-- Generator: Adobe Illustrator 19.0.0, SVG Export Plug-In . SVG Version: 6.00 Build 0) --><svg version="1.1" id="Capa_1" xmlns="http://www.w3.org/2000/svg" xmlns:xlink="http://www.w3.org/1999/xlink" x="0px" y="0px" viewBox="0 0 512 512" style="enable-background:new 0 0 512 512;" xml:space="preserve"><g><g><path d="M512,305.685v-99.369l-53.994-11.304c-4.048-13.38-9.429-26.329-16.073-38.676l30.22-46.223l-70.266-70.265l-46.222,30.219c-12.347-6.645-25.296-12.026-38.676-16.073L305.685,0h-99.369l-11.305,53.994c-13.38,4.047-26.329,9.429-38.676,16.073l-46.222-30.219l-70.266,70.265l30.22,46.223c-6.645,12.347-12.025,25.295-16.073,38.676L0,206.315v99.369l53.994,11.304c4.047,13.379,9.43,26.33,16.073,38.676l-30.22,46.222l70.266,70.265l46.222-30.219c12.347,6.644,25.296,12.025,38.676,16.073L206.315,512h99.369l11.305-53.995c13.38-4.047,26.329-9.429,38.676-16.073l46.222,30.219l70.266-70.265l-30.22-46.222c6.644-12.346,12.026-25.296,16.073-38.676L512,305.685z M433.765,291.414l-2.302,9.075c-4.278,16.865-10.995,33.027-19.965,48.038l-4.811,8.052l27.02,41.327l-35.801,35.801l-41.327-27.019l-8.052,4.81c-15.012,8.969-31.175,15.686-48.039,19.964l-9.075,2.303L281.315,482h-50.631l-10.098-48.235l-9.075-2.303c-16.864-4.278-33.027-10.996-48.039-19.964l-8.052-4.81l-41.327,27.019l-35.801-35.801l27.02-41.327l-4.811-8.052c-8.97-15.011-15.687-31.173-19.965-48.038l-2.302-9.075L30,281.315v-50.63l48.235-10.099l2.302-9.075c4.278-16.864,10.995-33.026,19.965-48.038l4.811-8.052l-27.02-41.328l35.801-35.801l41.328,27.019l8.051-4.811c15.012-8.969,31.175-15.686,48.039-19.964l9.074-2.302L230.685,30h50.631l10.099,48.235l9.074,2.302c16.864,4.278,33.027,10.995,48.039,19.964l8.051,4.811l41.328-27.019l35.801,35.801l-27.02,41.328l4.811,8.052c8.97,15.011,15.687,31.173,19.965,48.038l2.302,9.075L482,230.685v50.63L433.765,291.414z"/></g></g><g><g><path d="M256,122c-73.888,0-134,60.112-134,134s60.112,134,134,134s134-60.112,134-134S329.888,122,256,122z M256,360c-57.346,0-104-46.654-104-104s46.654-104,104-104s104,46.654,104,104S313.346,360,256,360z"/></g></g><g><g><path d="M211,196v119h30v-29h30v29h30V196H211z M271,256h-30v-30h30V256z"/></g></g><g></g><g></g><g></g><g></g><g></g><g></g><g></g><g></g><g></g><g></g><g></g><g></g><g></g><g></g><g></g></svg>
